<?xml version="1.0" encoding="UTF-8"?>
<!-- Created with Inkscape (http://www.inkscape.org/) -->
<svg width="256" height="256" version="1.1" viewBox="0 0 67.7333 67.7333" xml:space="preserve" xmlns="http://www.w3.org/2000/svg"><circle cx="33.8667" cy="33.8667" r="33.8667" fill="#206bc4" stop-color="#000000" stroke-linecap="square" stroke-width="11.7627"/><g fill="#fff" stroke-width=".155821px" aria-label="LOSH"><path d="m23.935 26.0098c-2.42796 0-4.33518 0.696594-5.72162 2.08979-1.37967 1.3932-2.06964 3.31725-2.06964 5.77226 0 2.44825 0.689967 4.36872 2.06964 5.76192 1.38644 1.3932 3.29366 2.0898 5.72162 2.0898 2.43472 0 4.34194-0.696594 5.72161-2.0898s2.06964-3.31368 2.06964-5.76192c0-2.45501-0.689966-4.37906-2.06964-5.77226-1.37968-1.3932-3.28689-2.08979-5.72161-2.08979zm15.9882 0c-1.82604 0-3.22586 0.405406-4.19974 1.21698-0.973888 0.811573-1.46089 1.97172-1.46089 3.47989 0 1.20384 0.348297 2.1605 1.0449 2.87063 0.703364 0.710127 1.81251 1.22773 3.32745 1.55236l1.51154 0.334864c0.919783 0.202893 1.53172 0.432882 1.83606 0.68988 0.311103 0.256998 0.466638 0.622122 0.466638 1.09554 0 0.527523-0.226417 0.933447-0.679545 1.2175-0.453128 0.284051-1.10587 0.425814-1.95802 0.425814-0.838626 0-1.71115-0.128508-2.61741-0.385506-0.899494-0.263762-1.8327-0.652341-2.79983-1.16634v3.29696c0.967125 0.358445 1.93399 0.628716 2.90111 0.81132 0.967126 0.182604 1.93094 0.273885 2.8913 0.273885 2.0357 0 3.54719-0.405406 4.53461-1.21698 0.994177-0.818337 1.49138-2.06313 1.49138-3.73362 0-1.27147-0.354925-2.2521-1.06505-2.94194-0.710126-0.689838-1.90698-1.20387-3.591-1.54202l-1.66398-0.334347c-0.791285-0.162314-1.33897-0.355076-1.64331-0.578259-0.297577-0.229946-0.446484-0.54816-0.446484-0.953947 0-0.541049 0.223361-0.939828 0.669727-1.19683 0.446364-0.256998 1.13581-0.385506 2.06912-0.385506 0.703364 0 1.45096 0.094336 2.24224 0.283703s1.60261 0.470355 2.43448 0.842326v-3.20601c-0.940073-0.250235-1.84931-0.435852-2.72852-0.557588-0.879204-0.128499-1.7349-0.192753-2.56677-0.192753zm-35.4051 0.273885v15.1458h10.7637v-2.95228h-6.85798v-12.1936h-3.9057zm45.1239 0v15.1458h3.9057v-6.42183h5.76192v6.42183h3.9057v-15.1458h-3.9057v5.77226h-5.76192v-5.77226h-3.9057zm-25.707 2.55643c1.19707 0 2.12365 0.439578 2.77968 1.31878 0.656022 0.879205 0.983919 2.11686 0.983919 3.71295 0 1.58933-0.327897 2.82341-0.983919 3.70262-0.656022 0.879205-1.5826 1.31878-2.77968 1.31878-1.19031 0-2.11332-0.439578-2.76934-1.31878-0.656022-0.879204-0.983919-2.11328-0.983919-3.70262 0-1.5961 0.327897-2.83375 0.983919-3.71295 0.656022-0.879204 1.57903-1.31878 2.76934-1.31878z"/></g></svg>
