<?xml version="1.0" encoding="UTF-8"?>
<svg width="700" height="350" version="1.1" viewBox="0 0 700 350" xmlns="http://www.w3.org/2000/svg" xmlns:xlink="http://www.w3.org/1999/xlink">
 <rect width="100%" height="100%" fill="#fff" opacity="0"/>
 <defs>
  <clipPath id="clipPath6042">
   <path d="M 0,551.986 H 530.973 V 0 H 0 Z"/>
  </clipPath>
  <clipPath id="clipPath6042-6">
   <path d="M 0,551.986 H 530.973 V 0 H 0 Z"/>
  </clipPath>
 </defs>
 <g fill="#fff">
  <path transform="matrix(1.2879 -.345092 -.345092 -1.2879 478.195 858.835)" d="m152.608 444.545c-8.995 0-16.288-7.293-16.288-16.29 0-7.197 4.667-13.302 11.14-15.457 0.815-0.149 1.112 0.354 1.112 0.786 0 0.386-0.014 1.411-0.022 2.77-4.531-0.984-5.487 2.184-5.487 2.184-0.741 1.881-1.809 2.382-1.809 2.382-1.479 1.011 0.112 0.991 0.112 0.991 1.635-0.116 2.495-1.679 2.495-1.679 1.453-2.489 3.813-1.77 4.741-1.354 0.148 1.053 0.568 1.771 1.034 2.178-3.617 0.411-7.42 1.809-7.42 8.051 0 1.778 0.635 3.232 1.677 4.371-0.168 0.412-0.727 2.068 0.159 4.311 0 0 1.368 0.438 4.48-1.67 1.299 0.361 2.693 0.542 4.078 0.548 1.383-6e-3 2.777-0.187 4.078-0.548 3.11 2.108 4.475 1.67 4.475 1.67 0.889-2.243 0.33-3.899 0.162-4.311 1.044-1.139 1.675-2.593 1.675-4.371 0-6.258-3.809-7.635-7.438-8.038 0.585-0.503 1.106-1.497 1.106-3.017 0-2.177-0.02-3.934-0.02-4.468 0-0.436 0.293-0.943 1.12-0.784 6.468 2.159 11.131 8.26 11.131 15.455 0 8.997-7.294 16.29-16.291 16.29" clip-path="url(#clipPath6042)" fill-rule="evenodd"/>
  <path d="m159.127 238.795-1.95263 7.2873-1.95014 7.27803-1.95263 7.2873-1.95014 7.27804 7.27803 1.95014 1.95014-7.27804 1.95263-7.2873 1.95014-7.27803 1.95263-7.2873 1.95014-7.27803-7.27803-1.95014zm10.6626 18.4681-1.95262 7.2873-1.95015 7.27804 7.27803 1.95014 1.95014-7.27804 1.95263-7.2873 1.95014-7.27803-7.27803-1.95014zm18.4681-10.6626-1.95262 7.2873-1.95015 7.27803-1.95262 7.2873-1.95015 7.27804 7.27803 1.95014 1.95015-7.27804 1.95262-7.2873 1.95014-7.27803 1.95263-7.2873 1.95014-7.27803-7.27803-1.95014zm14.8092 0.0628c0.64591-2.41055 3.12634-3.84264 5.5369-3.19673s3.84265 3.12635 3.19675 5.53691c-0.64591 2.41056-3.12636 3.84264-5.53692 3.19673s-3.84263-3.12634-3.19673-5.53691zm-3.90277 14.5653c0.64591-2.41056 3.12634-3.84264 5.53691-3.19674 2.41055 0.64591 3.84264 3.12635 3.19673 5.53692-0.6459 2.41055-3.12635 3.84263-5.53691 3.19672-2.41056-0.6459-3.84263-3.12634-3.19673-5.5369z" stroke-width=".959844"/>
  <path transform="matrix(.975956 .261507 .261507 -.975956 89.0679 450.062)" d="m152.608 444.545c-8.995 0-16.288-7.293-16.288-16.29 0-7.197 4.667-13.302 11.14-15.457 0.815-0.149 1.112 0.354 1.112 0.786 0 0.386-0.014 1.411-0.022 2.77-4.531-0.984-5.487 2.184-5.487 2.184-0.741 1.881-1.809 2.382-1.809 2.382-1.479 1.011 0.112 0.991 0.112 0.991 1.635-0.116 2.495-1.679 2.495-1.679 1.453-2.489 3.813-1.77 4.741-1.354 0.148 1.053 0.568 1.771 1.034 2.178-3.617 0.411-7.42 1.809-7.42 8.051 0 1.778 0.635 3.232 1.677 4.371-0.168 0.412-0.727 2.068 0.159 4.311 0 0 1.368 0.438 4.48-1.67 1.299 0.361 2.693 0.542 4.078 0.548 1.383-6e-3 2.777-0.187 4.078-0.548 3.11 2.108 4.475 1.67 4.475 1.67 0.889-2.243 0.33-3.899 0.162-4.311 1.044-1.139 1.675-2.593 1.675-4.371 0-6.258-3.809-7.635-7.438-8.038 0.585-0.503 1.106-1.497 1.106-3.017 0-2.177-0.02-3.934-0.02-4.468 0-0.436 0.293-0.943 1.12-0.784 6.468 2.159 11.131 8.26 11.131 15.455 0 8.997-7.294 16.29-16.291 16.29" clip-path="url(#clipPath6042-6)" fill-rule="evenodd"/>
  <path d="m-19.1749 68.8578 1.47967 5.52223 1.4778 5.5152 1.47967 5.52223 1.4778 5.51521 5.5152-1.4778-1.4778-5.51521-1.47967-5.52223-1.4778-5.5152-1.47967-5.52223-1.4778-5.5152-5.5152 1.4778zm13.9949 8.07996 1.47968 5.52223 1.47779 5.51521 5.5152-1.4778-1.4778-5.51521-1.47967-5.52223-1.4778-5.5152-5.5152 1.4778zm8.07996-13.9949 1.47968 5.52222 1.47779 5.51521 1.47968 5.52223 1.47779 5.51521 5.5152-1.4778-1.47779-5.51521-1.47968-5.52223-1.47779-5.5152-1.47968-5.52223-1.4778-5.5152-5.5152 1.4778zm9.74254-5.56991c-0.489456-1.82669 0.595749-3.70634 2.42244-4.1958 1.8267-0.489458 3.70635 0.595753 4.19581 2.42244 0.48946 1.8267-0.595763 3.70634-2.42246 4.1958-1.8267 0.489461-3.70633-0.595753-4.1958-2.42245zm2.95747 11.0374c-0.489459-1.8267 0.595751-3.70634 2.42245-4.19581 1.82669-0.489455 3.70634 0.595757 4.19581 2.42246 0.489461 1.82668-0.595762 3.70633-2.42246 4.19579-1.82669 0.489465-3.70633-0.595755-4.1958-2.42244z" stroke-width=".727359"/>
  <path d="m680.825 68.8578 1.47967 5.52223 1.4778 5.51521 1.47967 5.52222 1.4778 5.51521 5.51521-1.47779-1.4778-5.51521-1.47968-5.52223-1.47779-5.5152-1.47968-5.52223-1.47779-5.51521-5.51521 1.4778zm13.9949 8.07996 1.47968 5.52223 1.4778 5.51522 5.5152-1.4778-1.4778-5.51521-1.47967-5.52223-1.4778-5.5152-5.5152 1.47779zm8.07997-13.9949 1.47968 5.52223 1.47779 5.5152 1.47968 5.52223 1.47779 5.51521 5.5152-1.47779-1.47779-5.51522-2.95748-11.0374-1.47967-5.52224-1.4778-5.5152-5.5152 1.4778zm9.74254-5.56991c-0.48946-1.82669 0.59575-3.70634 2.42244-4.1958 1.8267-0.489458 3.70635 0.595753 4.19582 2.42244 0.48946 1.8267-0.59577 3.70634-2.42246 4.1958-1.8267 0.489461-3.70633-0.595753-4.1958-2.42245zm2.95747 11.0374c-0.48946-1.82669 0.59575-3.70633 2.42245-4.1958 1.82669-0.489455 3.70634 0.595753 4.1958 2.42246 0.48947 1.82668-0.59576 3.70633-2.42245 4.19579s-3.70633-0.59576-4.1958-2.42245z" stroke-width=".727359"/>
 </g>
</svg>
